<svg xmlns="http://www.w3.org/2000/svg" viewBox="0 0 240 150"><defs><linearGradient id="g" x1="0" x2="1"><stop offset="0" stop-color="#0077ff"/><stop offset="1" stop-color="#ffd777"/></linearGradient></defs><path d="M36 118 C74 102,88 104,110 82 S140 52,166 62 S196 46,212 24" fill="none" stroke="url(#g)" stroke-width="4" stroke-linecap="round"/><g fill="#0077ff"><rect x="44" y="92" width="8" height="20" rx="2"/><rect x="60" y="80" width="8" height="32" rx="2"/><rect x="76" y="68" width="8" height="44" rx="2"/><rect x="92" y="74" width="8" height="38" rx="2"/><rect x="108" y="52" width="8" height="60" rx="2"/><rect x="124" y="66" width="8" height="46" rx="2"/><rect x="140" y="44" width="8" height="68" rx="2"/><rect x="156" y="32" width="8" height="80" rx="2"/><rect x="172" y="48" width="8" height="64" rx="2"/></g><circle cx="212" cy="24" r="6" fill="#ffd777"/></svg>