<svg width="1100" height="400" viewBox="0 0 1100 400" fill="none" xmlns="http://www.w3.org/2000/svg">
<path fill-rule="evenodd" clip-rule="evenodd" d="M248.847 97.0334C249.821 97.823 249.252 99.3639 247.999 99.3639H125.251C123.998 99.3639 123.429 97.823 124.402 97.0334C141.398 83.2544 163.048 75 186.624 75C210.201 75 231.851 83.2544 248.847 97.0334Z" fill="#6700CE"/>
<path fill-rule="evenodd" clip-rule="evenodd" d="M148.137 200.944C147.429 199.934 146.29 199.299 145.057 199.299H93.301C92.1155 199.299 91.2511 200.426 91.5804 201.566C103.513 242.831 141.546 273.001 186.619 273.001C231.692 273.001 269.725 242.831 281.658 201.566C281.988 200.426 281.123 199.299 279.938 199.299H228.182C226.95 199.299 225.81 199.934 225.102 200.944C216.607 213.069 202.538 220.995 186.62 220.995C170.701 220.995 156.632 213.069 148.137 200.944Z" fill="#6700CE"/>
<path fill-rule="evenodd" clip-rule="evenodd" d="M221.424 142.384C222.14 143.173 223.145 143.649 224.21 143.649H278.351C279.577 143.649 280.447 142.453 280.043 141.295C276.222 130.348 270.534 120.276 263.362 111.464C262.689 110.637 261.674 110.169 260.608 110.169H112.642C111.576 110.169 110.562 110.637 109.889 111.464C102.716 120.276 97.0283 130.348 93.2076 141.295C92.8034 142.453 93.6738 143.649 94.899 143.649H149.04C150.105 143.649 151.111 143.173 151.826 142.384C160.42 132.901 172.828 126.947 186.625 126.947C200.423 126.947 212.831 132.901 221.424 142.384Z" fill="#6700CE"/>
<path fill-rule="evenodd" clip-rule="evenodd" d="M233.19 188.522C232.27 188.522 231.616 187.623 231.864 186.735C232.993 182.697 233.597 178.439 233.597 174.041C233.597 167.851 232.401 161.94 230.229 156.527C229.861 155.611 230.521 154.589 231.507 154.589H282.533C283.18 154.589 283.738 155.046 283.857 155.682C284.971 161.632 285.554 167.769 285.554 174.042C285.554 178.558 285.252 183.004 284.667 187.36C284.577 188.027 284.006 188.522 283.332 188.522H233.19ZM141.389 186.735C141.638 187.623 140.984 188.522 140.064 188.522H89.9213C89.2485 188.522 88.6759 188.027 88.5868 187.36C88.0016 183.004 87.6992 178.558 87.6992 174.042C87.6992 167.769 88.2822 161.632 89.3966 155.682C89.5164 155.046 90.074 154.589 90.7206 154.589H141.747C142.733 154.589 143.392 155.611 143.025 156.527C140.853 161.94 139.657 167.851 139.657 174.041C139.657 178.439 140.261 182.697 141.389 186.735Z" fill="#6700CE"/>
<path d="M309.672 136.205H344.778V169.752L339.057 163.25C342.351 156.142 346.945 150.075 352.84 145.047C358.734 140.02 365.322 136.639 372.603 134.905C379.885 133.172 387.339 133.432 394.967 135.685V168.711C385.779 165.591 377.284 164.724 369.483 166.111C361.855 167.498 355.787 170.792 351.279 175.993C346.945 181.194 344.778 187.608 344.778 195.236V270.39H309.672V136.205Z" fill="#6700CE"/>
<path d="M396.087 203.298C396.087 190.469 398.861 178.68 404.408 167.931C410.129 157.183 417.931 148.774 427.813 142.707C437.695 136.639 448.617 133.605 460.579 133.605C472.541 133.605 483.116 136.639 492.304 142.707C501.493 148.774 508.514 157.096 513.368 167.671C518.396 178.247 520.91 190.122 520.91 203.298C520.91 216.474 518.396 228.349 513.368 238.924C508.514 249.5 501.493 257.821 492.304 263.889C483.116 269.957 472.541 272.991 460.579 272.991C448.617 272.991 437.695 269.957 427.813 263.889C417.931 257.821 410.129 249.5 404.408 238.924C398.861 228.176 396.087 216.3 396.087 203.298ZM432.494 203.298C432.494 210.232 434.054 216.647 437.174 222.541C440.295 228.262 444.542 232.77 449.917 236.064C455.291 239.358 461.272 241.005 467.86 241.005C474.448 241.005 480.429 239.358 485.803 236.064C491.178 232.77 495.425 228.262 498.546 222.541C501.666 216.647 503.227 210.232 503.227 203.298C503.227 196.363 501.666 190.035 498.546 184.314C495.425 178.42 491.178 173.912 485.803 170.792C480.429 167.498 474.448 165.851 467.86 165.851C461.272 165.851 455.291 167.498 449.917 170.792C444.542 173.912 440.295 178.42 437.174 184.314C434.054 190.035 432.494 196.363 432.494 203.298ZM503.227 77.9548H538.333V270.39H503.227V77.9548Z" fill="#6700CE"/>
<path d="M590.535 188.995H673.231L665.169 200.177C664.822 193.243 663.089 187.001 659.968 181.454C656.848 175.906 652.6 171.572 647.226 168.451C642.025 165.331 636.044 163.771 629.283 163.771C622.521 163.771 616.367 165.504 610.819 168.971C605.271 172.265 600.937 177.033 597.817 183.274C594.696 189.342 593.136 196.016 593.136 203.298C593.136 210.752 594.696 217.514 597.817 223.581C601.111 229.649 605.705 234.417 611.599 237.884C617.494 241.351 624.168 243.085 631.623 243.085C638.904 243.085 645.406 241.438 651.127 238.144C657.021 234.677 661.615 229.996 664.909 224.102L693.774 237.104C687.533 248.026 678.952 256.781 668.03 263.369C657.108 269.783 644.625 272.991 630.583 272.991C617.234 272.991 605.098 269.957 594.176 263.889C583.254 257.821 574.586 249.5 568.171 238.924C561.93 228.176 558.81 216.3 558.81 203.298C558.81 190.469 561.844 178.767 567.911 168.191C574.152 157.443 582.647 149.035 593.396 142.967C604.145 136.726 616.107 133.605 629.283 133.605C644.019 133.605 657.108 137.332 668.55 144.787C679.992 152.242 688.4 162.297 693.774 174.953C699.322 187.435 700.882 201.044 698.455 215.78H590.535V188.995Z" fill="#6700CE"/>
<path d="M720.131 136.205H755.237V169.752L749.516 163.25C752.81 156.142 757.404 150.075 763.298 145.047C769.193 140.02 775.781 136.639 783.062 134.905C790.343 133.172 797.798 133.432 805.426 135.685V168.711C796.238 165.591 787.743 164.724 779.942 166.111C772.313 167.498 766.246 170.792 761.738 175.993C757.404 181.194 755.237 187.608 755.237 195.236V270.39H720.131V136.205Z" fill="#6700CE"/>
<path d="M821.905 77.9548H857.011V270.39H821.905V77.9548Z" fill="#6700CE"/>
<path d="M912.704 272.21C915.825 278.972 919.899 284.086 924.926 287.553C929.954 291.194 935.762 293.014 942.349 293.014C952.231 293.014 960.466 289.547 967.054 282.612C973.815 275.851 977.196 267.096 977.196 256.347V232.943L982.657 240.225C978.323 249.066 971.995 256.087 963.673 261.288C955.352 266.316 945.817 268.83 935.068 268.83C923.973 268.83 914.351 266.489 906.203 261.808C898.228 257.128 892.073 250.626 887.739 242.305C883.405 233.983 881.238 224.362 881.238 213.44V136.205H916.345V207.198C916.345 213.266 917.471 218.554 919.725 223.061C921.979 227.396 925.186 230.863 929.347 233.463C933.681 235.89 938.969 237.104 945.21 237.104C951.451 237.104 956.999 235.89 961.853 233.463C966.88 230.863 970.695 227.309 973.295 222.801C975.895 218.12 977.196 212.92 977.196 207.198V136.205H1012.3V256.347C1012.3 269.35 1009.18 281.052 1002.94 291.454C996.873 302.029 988.464 310.264 977.716 316.158C967.14 322.053 955.352 325 942.349 325C928.827 325 916.778 321.706 906.203 315.118C895.627 308.53 887.393 299.775 881.498 288.853L912.704 272.21Z" fill="#6700CE"/>
</svg>
